<mxfile host="app.diagrams.net" agent="Mozilla/5.0 (Windows NT 10.0; Win64; x64) AppleWebKit/537.36 (KHTML, like Gecko) Chrome/140.0.0.0 Safari/537.36" version="28.2.5">
  <diagram id="PpFPkoP9Tohy6IJCOHoA" name="Page-1">
    <mxGraphModel dx="2148" dy="1159" grid="1" gridSize="10" guides="1" tooltips="1" connect="1" arrows="1" fold="1" page="1" pageScale="1" pageWidth="850" pageHeight="1100" math="0" shadow="0">
      <root>
        <mxCell id="0" />
        <mxCell id="1" parent="0" />
        <mxCell id="tlHSpGF_E2xz41YYDQiU-115" style="edgeStyle=orthogonalEdgeStyle;rounded=0;orthogonalLoop=1;jettySize=auto;html=1;exitX=0;exitY=0.5;exitDx=0;exitDy=0;entryX=1;entryY=0.5;entryDx=0;entryDy=0;" parent="1" source="tlHSpGF_E2xz41YYDQiU-85" target="tlHSpGF_E2xz41YYDQiU-103" edge="1">
          <mxGeometry relative="1" as="geometry" />
        </mxCell>
        <mxCell id="tlHSpGF_E2xz41YYDQiU-126" value="observed on" style="edgeLabel;html=1;align=center;verticalAlign=middle;resizable=0;points=[];" parent="tlHSpGF_E2xz41YYDQiU-115" vertex="1" connectable="0">
          <mxGeometry x="-0.0769" relative="1" as="geometry">
            <mxPoint as="offset" />
          </mxGeometry>
        </mxCell>
        <mxCell id="tlHSpGF_E2xz41YYDQiU-85" value="data point" style="whiteSpace=wrap;html=1;align=center;" parent="1" vertex="1">
          <mxGeometry x="325" y="250" width="100" height="40" as="geometry" />
        </mxCell>
        <mxCell id="tlHSpGF_E2xz41YYDQiU-117" style="edgeStyle=orthogonalEdgeStyle;rounded=0;orthogonalLoop=1;jettySize=auto;html=1;exitX=0.25;exitY=1;exitDx=0;exitDy=0;entryX=0.5;entryY=0;entryDx=0;entryDy=0;" parent="1" source="tlHSpGF_E2xz41YYDQiU-86" target="tlHSpGF_E2xz41YYDQiU-90" edge="1">
          <mxGeometry relative="1" as="geometry" />
        </mxCell>
        <mxCell id="tlHSpGF_E2xz41YYDQiU-120" value="at" style="edgeLabel;html=1;align=center;verticalAlign=middle;resizable=0;points=[];" parent="tlHSpGF_E2xz41YYDQiU-117" vertex="1" connectable="0">
          <mxGeometry x="-0.1076" y="1" relative="1" as="geometry">
            <mxPoint as="offset" />
          </mxGeometry>
        </mxCell>
        <mxCell id="tlHSpGF_E2xz41YYDQiU-118" style="edgeStyle=orthogonalEdgeStyle;rounded=0;orthogonalLoop=1;jettySize=auto;html=1;exitX=0.75;exitY=1;exitDx=0;exitDy=0;entryX=0.5;entryY=0;entryDx=0;entryDy=0;" parent="1" source="tlHSpGF_E2xz41YYDQiU-86" target="tlHSpGF_E2xz41YYDQiU-89" edge="1">
          <mxGeometry relative="1" as="geometry" />
        </mxCell>
        <mxCell id="tlHSpGF_E2xz41YYDQiU-121" value="Text" style="edgeLabel;html=1;align=center;verticalAlign=middle;resizable=0;points=[];" parent="tlHSpGF_E2xz41YYDQiU-118" vertex="1" connectable="0">
          <mxGeometry x="-0.0128" y="-2" relative="1" as="geometry">
            <mxPoint as="offset" />
          </mxGeometry>
        </mxCell>
        <mxCell id="tlHSpGF_E2xz41YYDQiU-122" value="collect" style="edgeLabel;html=1;align=center;verticalAlign=middle;resizable=0;points=[];" parent="tlHSpGF_E2xz41YYDQiU-118" vertex="1" connectable="0">
          <mxGeometry x="0.0383" y="-3" relative="1" as="geometry">
            <mxPoint as="offset" />
          </mxGeometry>
        </mxCell>
        <mxCell id="tlHSpGF_E2xz41YYDQiU-86" value="collected data point" style="whiteSpace=wrap;html=1;align=center;" parent="1" vertex="1">
          <mxGeometry x="200" y="410" width="100" height="40" as="geometry" />
        </mxCell>
        <mxCell id="tlHSpGF_E2xz41YYDQiU-125" style="edgeStyle=orthogonalEdgeStyle;rounded=0;orthogonalLoop=1;jettySize=auto;html=1;exitX=0.5;exitY=0;exitDx=0;exitDy=0;" parent="1" source="tlHSpGF_E2xz41YYDQiU-87" edge="1">
          <mxGeometry relative="1" as="geometry">
            <mxPoint x="369.9999999999998" y="290" as="targetPoint" />
          </mxGeometry>
        </mxCell>
        <mxCell id="tlHSpGF_E2xz41YYDQiU-127" style="edgeStyle=orthogonalEdgeStyle;rounded=0;orthogonalLoop=1;jettySize=auto;html=1;exitX=1;exitY=0.5;exitDx=0;exitDy=0;entryX=0;entryY=0.5;entryDx=0;entryDy=0;" parent="1" source="tlHSpGF_E2xz41YYDQiU-87" target="tlHSpGF_E2xz41YYDQiU-93" edge="1">
          <mxGeometry relative="1" as="geometry" />
        </mxCell>
        <mxCell id="tlHSpGF_E2xz41YYDQiU-128" value="computed by" style="edgeLabel;html=1;align=center;verticalAlign=middle;resizable=0;points=[];" parent="tlHSpGF_E2xz41YYDQiU-127" vertex="1" connectable="0">
          <mxGeometry x="0.4271" y="-1" relative="1" as="geometry">
            <mxPoint x="-16" y="-1" as="offset" />
          </mxGeometry>
        </mxCell>
        <mxCell id="tlHSpGF_E2xz41YYDQiU-87" value="derived data point" style="whiteSpace=wrap;html=1;align=center;" parent="1" vertex="1">
          <mxGeometry x="410" y="410" width="100" height="40" as="geometry" />
        </mxCell>
        <mxCell id="tlHSpGF_E2xz41YYDQiU-101" style="edgeStyle=orthogonalEdgeStyle;rounded=0;orthogonalLoop=1;jettySize=auto;html=1;exitX=0.5;exitY=0;exitDx=0;exitDy=0;" parent="1" source="tlHSpGF_E2xz41YYDQiU-88" target="tlHSpGF_E2xz41YYDQiU-87" edge="1">
          <mxGeometry relative="1" as="geometry" />
        </mxCell>
        <mxCell id="tlHSpGF_E2xz41YYDQiU-102" value="is a" style="edgeLabel;html=1;align=center;verticalAlign=middle;resizable=0;points=[];" parent="tlHSpGF_E2xz41YYDQiU-101" vertex="1" connectable="0">
          <mxGeometry x="0.3085" y="-1" relative="1" as="geometry">
            <mxPoint x="12" as="offset" />
          </mxGeometry>
        </mxCell>
        <mxCell id="tlHSpGF_E2xz41YYDQiU-129" style="edgeStyle=orthogonalEdgeStyle;rounded=0;orthogonalLoop=1;jettySize=auto;html=1;exitX=1;exitY=0.5;exitDx=0;exitDy=0;entryX=0;entryY=0.5;entryDx=0;entryDy=0;" parent="1" source="tlHSpGF_E2xz41YYDQiU-88" target="tlHSpGF_E2xz41YYDQiU-100" edge="1">
          <mxGeometry relative="1" as="geometry" />
        </mxCell>
        <mxCell id="tlHSpGF_E2xz41YYDQiU-130" value="at" style="edgeLabel;html=1;align=center;verticalAlign=middle;resizable=0;points=[];" parent="tlHSpGF_E2xz41YYDQiU-129" vertex="1" connectable="0">
          <mxGeometry x="0.1523" relative="1" as="geometry">
            <mxPoint as="offset" />
          </mxGeometry>
        </mxCell>
        <mxCell id="tlHSpGF_E2xz41YYDQiU-88" value="analysis data point" style="whiteSpace=wrap;html=1;align=center;" parent="1" vertex="1">
          <mxGeometry x="460" y="510" width="100" height="40" as="geometry" />
        </mxCell>
        <mxCell id="tlHSpGF_E2xz41YYDQiU-89" value="biomedical concept" style="whiteSpace=wrap;html=1;align=center;" parent="1" vertex="1">
          <mxGeometry x="280" y="510" width="100" height="40" as="geometry" />
        </mxCell>
        <mxCell id="tlHSpGF_E2xz41YYDQiU-90" value="collection timing" style="whiteSpace=wrap;html=1;align=center;" parent="1" vertex="1">
          <mxGeometry x="110" y="510" width="100" height="40" as="geometry" />
        </mxCell>
        <mxCell id="tlHSpGF_E2xz41YYDQiU-104" style="edgeStyle=orthogonalEdgeStyle;rounded=0;orthogonalLoop=1;jettySize=auto;html=1;exitX=1;exitY=0.5;exitDx=0;exitDy=0;entryX=1;entryY=0.25;entryDx=0;entryDy=0;" parent="1" source="tlHSpGF_E2xz41YYDQiU-93" target="tlHSpGF_E2xz41YYDQiU-85" edge="1">
          <mxGeometry relative="1" as="geometry" />
        </mxCell>
        <mxCell id="tlHSpGF_E2xz41YYDQiU-132" value="involves" style="edgeLabel;html=1;align=center;verticalAlign=middle;resizable=0;points=[];" parent="tlHSpGF_E2xz41YYDQiU-104" vertex="1" connectable="0">
          <mxGeometry x="-0.6393" y="-2" relative="1" as="geometry">
            <mxPoint y="16" as="offset" />
          </mxGeometry>
        </mxCell>
        <mxCell id="tlHSpGF_E2xz41YYDQiU-93" value="derivation" style="whiteSpace=wrap;html=1;align=center;" parent="1" vertex="1">
          <mxGeometry x="610" y="390" width="100" height="40" as="geometry" />
        </mxCell>
        <mxCell id="tlHSpGF_E2xz41YYDQiU-98" value="imputation" style="whiteSpace=wrap;html=1;align=center;" parent="1" vertex="1">
          <mxGeometry x="700" y="510" width="100" height="40" as="geometry" />
        </mxCell>
        <mxCell id="tlHSpGF_E2xz41YYDQiU-99" value="" style="edgeStyle=orthogonalEdgeStyle;rounded=0;orthogonalLoop=1;jettySize=auto;html=1;" parent="1" source="tlHSpGF_E2xz41YYDQiU-88" target="tlHSpGF_E2xz41YYDQiU-98" edge="1">
          <mxGeometry relative="1" as="geometry" />
        </mxCell>
        <mxCell id="tlHSpGF_E2xz41YYDQiU-145" value="computed by" style="edgeLabel;html=1;align=center;verticalAlign=middle;resizable=0;points=[];" parent="tlHSpGF_E2xz41YYDQiU-99" vertex="1" connectable="0">
          <mxGeometry x="0.4886" y="1" relative="1" as="geometry">
            <mxPoint x="-12" y="1" as="offset" />
          </mxGeometry>
        </mxCell>
        <mxCell id="tlHSpGF_E2xz41YYDQiU-100" value="analysis timing" style="whiteSpace=wrap;html=1;align=center;" parent="1" vertex="1">
          <mxGeometry x="640" y="600" width="100" height="40" as="geometry" />
        </mxCell>
        <mxCell id="tlHSpGF_E2xz41YYDQiU-103" value="entity" style="whiteSpace=wrap;html=1;align=center;" parent="1" vertex="1">
          <mxGeometry x="90" y="250" width="100" height="40" as="geometry" />
        </mxCell>
        <mxCell id="tlHSpGF_E2xz41YYDQiU-105" style="edgeStyle=orthogonalEdgeStyle;rounded=0;orthogonalLoop=1;jettySize=auto;html=1;entryX=1.006;entryY=0.634;entryDx=0;entryDy=0;entryPerimeter=0;exitX=0.75;exitY=0;exitDx=0;exitDy=0;" parent="1" source="tlHSpGF_E2xz41YYDQiU-98" target="tlHSpGF_E2xz41YYDQiU-85" edge="1">
          <mxGeometry relative="1" as="geometry">
            <mxPoint x="800" y="520" as="sourcePoint" />
            <Array as="points">
              <mxPoint x="770" y="510" />
              <mxPoint x="770" y="275" />
            </Array>
          </mxGeometry>
        </mxCell>
        <mxCell id="tlHSpGF_E2xz41YYDQiU-131" value="involves" style="edgeLabel;html=1;align=center;verticalAlign=middle;resizable=0;points=[];" parent="tlHSpGF_E2xz41YYDQiU-105" vertex="1" connectable="0">
          <mxGeometry x="-0.6888" relative="1" as="geometry">
            <mxPoint as="offset" />
          </mxGeometry>
        </mxCell>
        <mxCell id="tlHSpGF_E2xz41YYDQiU-123" style="edgeStyle=orthogonalEdgeStyle;rounded=0;orthogonalLoop=1;jettySize=auto;html=1;exitX=0.5;exitY=0;exitDx=0;exitDy=0;entryX=0.45;entryY=1.026;entryDx=0;entryDy=0;entryPerimeter=0;" parent="1" source="tlHSpGF_E2xz41YYDQiU-86" target="tlHSpGF_E2xz41YYDQiU-85" edge="1">
          <mxGeometry relative="1" as="geometry" />
        </mxCell>
        <mxCell id="tlHSpGF_E2xz41YYDQiU-124" value="is a" style="edgeLabel;html=1;align=center;verticalAlign=middle;resizable=0;points=[];" parent="tlHSpGF_E2xz41YYDQiU-123" vertex="1" connectable="0">
          <mxGeometry x="-0.0395" relative="1" as="geometry">
            <mxPoint x="46" y="-30" as="offset" />
          </mxGeometry>
        </mxCell>
        <mxCell id="tlHSpGF_E2xz41YYDQiU-134" style="edgeStyle=orthogonalEdgeStyle;rounded=0;orthogonalLoop=1;jettySize=auto;html=1;exitX=0;exitY=0.25;exitDx=0;exitDy=0;entryX=0.306;entryY=1.081;entryDx=0;entryDy=0;entryPerimeter=0;" parent="1" source="tlHSpGF_E2xz41YYDQiU-103" target="tlHSpGF_E2xz41YYDQiU-103" edge="1">
          <mxGeometry relative="1" as="geometry" />
        </mxCell>
        <mxCell id="tlHSpGF_E2xz41YYDQiU-135" value="related to" style="edgeLabel;html=1;align=center;verticalAlign=middle;resizable=0;points=[];" parent="tlHSpGF_E2xz41YYDQiU-134" vertex="1" connectable="0">
          <mxGeometry x="-0.2008" y="-2" relative="1" as="geometry">
            <mxPoint as="offset" />
          </mxGeometry>
        </mxCell>
        <mxCell id="tlHSpGF_E2xz41YYDQiU-139" value="" style="edgeStyle=orthogonalEdgeStyle;rounded=0;orthogonalLoop=1;jettySize=auto;html=1;" parent="1" source="tlHSpGF_E2xz41YYDQiU-136" target="tlHSpGF_E2xz41YYDQiU-138" edge="1">
          <mxGeometry relative="1" as="geometry" />
        </mxCell>
        <mxCell id="tlHSpGF_E2xz41YYDQiU-140" value="targets" style="edgeLabel;html=1;align=center;verticalAlign=middle;resizable=0;points=[];" parent="tlHSpGF_E2xz41YYDQiU-139" vertex="1" connectable="0">
          <mxGeometry x="-0.2296" relative="1" as="geometry">
            <mxPoint as="offset" />
          </mxGeometry>
        </mxCell>
        <mxCell id="tlHSpGF_E2xz41YYDQiU-178" style="edgeStyle=orthogonalEdgeStyle;rounded=0;orthogonalLoop=1;jettySize=auto;html=1;exitX=0.5;exitY=1;exitDx=0;exitDy=0;" parent="1" source="tlHSpGF_E2xz41YYDQiU-136" target="tlHSpGF_E2xz41YYDQiU-173" edge="1">
          <mxGeometry relative="1" as="geometry" />
        </mxCell>
        <mxCell id="tlHSpGF_E2xz41YYDQiU-179" value="may be expressed as" style="edgeLabel;html=1;align=center;verticalAlign=middle;resizable=0;points=[];" parent="tlHSpGF_E2xz41YYDQiU-178" vertex="1" connectable="0">
          <mxGeometry x="-0.3263" relative="1" as="geometry">
            <mxPoint x="26" as="offset" />
          </mxGeometry>
        </mxCell>
        <mxCell id="tlHSpGF_E2xz41YYDQiU-197" style="edgeStyle=orthogonalEdgeStyle;rounded=0;orthogonalLoop=1;jettySize=auto;html=1;" parent="1" source="tlHSpGF_E2xz41YYDQiU-136" target="tlHSpGF_E2xz41YYDQiU-184" edge="1">
          <mxGeometry relative="1" as="geometry" />
        </mxCell>
        <mxCell id="tlHSpGF_E2xz41YYDQiU-198" value="estmated through" style="edgeLabel;html=1;align=center;verticalAlign=middle;resizable=0;points=[];" parent="tlHSpGF_E2xz41YYDQiU-197" vertex="1" connectable="0">
          <mxGeometry x="0.6859" y="5" relative="1" as="geometry">
            <mxPoint as="offset" />
          </mxGeometry>
        </mxCell>
        <mxCell id="tlHSpGF_E2xz41YYDQiU-136" value="objective" style="whiteSpace=wrap;html=1;align=center;" parent="1" vertex="1">
          <mxGeometry x="1000" y="40" width="100" height="40" as="geometry" />
        </mxCell>
        <mxCell id="tlHSpGF_E2xz41YYDQiU-142" value="" style="edgeStyle=orthogonalEdgeStyle;rounded=0;orthogonalLoop=1;jettySize=auto;html=1;" parent="1" source="tlHSpGF_E2xz41YYDQiU-138" target="tlHSpGF_E2xz41YYDQiU-141" edge="1">
          <mxGeometry relative="1" as="geometry" />
        </mxCell>
        <mxCell id="tlHSpGF_E2xz41YYDQiU-143" value="represented by" style="edgeLabel;html=1;align=center;verticalAlign=middle;resizable=0;points=[];" parent="tlHSpGF_E2xz41YYDQiU-142" vertex="1" connectable="0">
          <mxGeometry x="-0.5414" relative="1" as="geometry">
            <mxPoint as="offset" />
          </mxGeometry>
        </mxCell>
        <mxCell id="tlHSpGF_E2xz41YYDQiU-138" value="&lt;font style=&quot;color: rgb(0, 153, 153);&quot;&gt;outcome of interrest&lt;/font&gt;" style="whiteSpace=wrap;html=1;strokeColor=#33FFFF;" parent="1" vertex="1">
          <mxGeometry x="870" y="140" width="120" height="40" as="geometry" />
        </mxCell>
        <mxCell id="tlHSpGF_E2xz41YYDQiU-144" style="edgeStyle=orthogonalEdgeStyle;rounded=0;orthogonalLoop=1;jettySize=auto;html=1;exitX=0;exitY=0.25;exitDx=0;exitDy=0;" parent="1" source="tlHSpGF_E2xz41YYDQiU-141" edge="1">
          <mxGeometry relative="1" as="geometry">
            <mxPoint x="369.9999999999998" y="290" as="targetPoint" />
          </mxGeometry>
        </mxCell>
        <mxCell id="tlHSpGF_E2xz41YYDQiU-141" value="endpoint" style="whiteSpace=wrap;html=1;" parent="1" vertex="1">
          <mxGeometry x="810" y="330" width="120" height="30" as="geometry" />
        </mxCell>
        <mxCell id="tlHSpGF_E2xz41YYDQiU-146" value="" style="shape=table;startSize=0;container=1;collapsible=0;childLayout=tableLayout;fontSize=11;fillColor=none;strokeColor=none;" parent="1" vertex="1">
          <mxGeometry x="890" y="370" width="80" height="50" as="geometry" />
        </mxCell>
        <mxCell id="tlHSpGF_E2xz41YYDQiU-147" value="" style="shape=tableRow;horizontal=0;startSize=0;swimlaneHead=0;swimlaneBody=0;strokeColor=inherit;top=0;left=0;bottom=0;right=0;collapsible=0;dropTarget=0;fillColor=none;points=[[0,0.5],[1,0.5]];portConstraint=eastwest;fontSize=16;" parent="tlHSpGF_E2xz41YYDQiU-146" vertex="1">
          <mxGeometry width="80" height="15" as="geometry" />
        </mxCell>
        <mxCell id="tlHSpGF_E2xz41YYDQiU-148" value="direct" style="shape=partialRectangle;html=1;whiteSpace=wrap;connectable=0;strokeColor=inherit;overflow=hidden;fillColor=none;top=0;left=0;bottom=0;right=0;pointerEvents=1;fontSize=12;align=left;spacingLeft=5;" parent="tlHSpGF_E2xz41YYDQiU-147" vertex="1">
          <mxGeometry width="80" height="15" as="geometry">
            <mxRectangle width="80" height="15" as="alternateBounds" />
          </mxGeometry>
        </mxCell>
        <mxCell id="tlHSpGF_E2xz41YYDQiU-149" value="" style="shape=tableRow;horizontal=0;startSize=0;swimlaneHead=0;swimlaneBody=0;strokeColor=inherit;top=0;left=0;bottom=0;right=0;collapsible=0;dropTarget=0;fillColor=none;points=[[0,0.5],[1,0.5]];portConstraint=eastwest;fontSize=16;" parent="tlHSpGF_E2xz41YYDQiU-146" vertex="1">
          <mxGeometry y="15" width="80" height="20" as="geometry" />
        </mxCell>
        <mxCell id="tlHSpGF_E2xz41YYDQiU-150" value="surrogate" style="shape=partialRectangle;html=1;whiteSpace=wrap;connectable=0;strokeColor=inherit;overflow=hidden;fillColor=none;top=0;left=0;bottom=0;right=0;pointerEvents=1;fontSize=12;align=left;spacingLeft=5;" parent="tlHSpGF_E2xz41YYDQiU-149" vertex="1">
          <mxGeometry width="80" height="20" as="geometry">
            <mxRectangle width="80" height="20" as="alternateBounds" />
          </mxGeometry>
        </mxCell>
        <mxCell id="tlHSpGF_E2xz41YYDQiU-151" value="" style="shape=tableRow;horizontal=0;startSize=0;swimlaneHead=0;swimlaneBody=0;strokeColor=inherit;top=0;left=0;bottom=0;right=0;collapsible=0;dropTarget=0;fillColor=none;points=[[0,0.5],[1,0.5]];portConstraint=eastwest;fontSize=16;" parent="tlHSpGF_E2xz41YYDQiU-146" vertex="1">
          <mxGeometry y="35" width="80" height="15" as="geometry" />
        </mxCell>
        <mxCell id="tlHSpGF_E2xz41YYDQiU-152" value="intermediate" style="shape=partialRectangle;html=1;whiteSpace=wrap;connectable=0;strokeColor=inherit;overflow=hidden;fillColor=none;top=0;left=0;bottom=0;right=0;pointerEvents=1;fontSize=12;align=left;spacingLeft=5;" parent="tlHSpGF_E2xz41YYDQiU-151" vertex="1">
          <mxGeometry width="80" height="15" as="geometry">
            <mxRectangle width="80" height="15" as="alternateBounds" />
          </mxGeometry>
        </mxCell>
        <mxCell id="tlHSpGF_E2xz41YYDQiU-155" value="" style="shape=table;startSize=0;container=1;collapsible=0;childLayout=tableLayout;fontSize=11;fillColor=none;strokeColor=none;" parent="1" vertex="1">
          <mxGeometry x="340" y="560" width="80" height="45" as="geometry" />
        </mxCell>
        <mxCell id="tlHSpGF_E2xz41YYDQiU-156" value="" style="shape=tableRow;horizontal=0;startSize=0;swimlaneHead=0;swimlaneBody=0;strokeColor=inherit;top=0;left=0;bottom=0;right=0;collapsible=0;dropTarget=0;fillColor=none;points=[[0,0.5],[1,0.5]];portConstraint=eastwest;fontSize=16;" parent="tlHSpGF_E2xz41YYDQiU-155" vertex="1">
          <mxGeometry width="80" height="15" as="geometry" />
        </mxCell>
        <mxCell id="tlHSpGF_E2xz41YYDQiU-157" value="event" style="shape=partialRectangle;html=1;whiteSpace=wrap;connectable=0;strokeColor=inherit;overflow=hidden;fillColor=none;top=0;left=0;bottom=0;right=0;pointerEvents=1;fontSize=12;align=left;spacingLeft=5;" parent="tlHSpGF_E2xz41YYDQiU-156" vertex="1">
          <mxGeometry width="80" height="15" as="geometry">
            <mxRectangle width="80" height="15" as="alternateBounds" />
          </mxGeometry>
        </mxCell>
        <mxCell id="tlHSpGF_E2xz41YYDQiU-158" value="" style="shape=tableRow;horizontal=0;startSize=0;swimlaneHead=0;swimlaneBody=0;strokeColor=inherit;top=0;left=0;bottom=0;right=0;collapsible=0;dropTarget=0;fillColor=none;points=[[0,0.5],[1,0.5]];portConstraint=eastwest;fontSize=16;" parent="tlHSpGF_E2xz41YYDQiU-155" vertex="1">
          <mxGeometry y="15" width="80" height="15" as="geometry" />
        </mxCell>
        <mxCell id="tlHSpGF_E2xz41YYDQiU-159" value="intervention" style="shape=partialRectangle;html=1;whiteSpace=wrap;connectable=0;strokeColor=inherit;overflow=hidden;fillColor=none;top=0;left=0;bottom=0;right=0;pointerEvents=1;fontSize=12;align=left;spacingLeft=5;" parent="tlHSpGF_E2xz41YYDQiU-158" vertex="1">
          <mxGeometry width="80" height="15" as="geometry">
            <mxRectangle width="80" height="15" as="alternateBounds" />
          </mxGeometry>
        </mxCell>
        <mxCell id="tlHSpGF_E2xz41YYDQiU-160" value="" style="shape=tableRow;horizontal=0;startSize=0;swimlaneHead=0;swimlaneBody=0;strokeColor=inherit;top=0;left=0;bottom=0;right=0;collapsible=0;dropTarget=0;fillColor=none;points=[[0,0.5],[1,0.5]];portConstraint=eastwest;fontSize=16;" parent="tlHSpGF_E2xz41YYDQiU-155" vertex="1">
          <mxGeometry y="30" width="80" height="15" as="geometry" />
        </mxCell>
        <mxCell id="tlHSpGF_E2xz41YYDQiU-161" value="finding" style="shape=partialRectangle;html=1;whiteSpace=wrap;connectable=0;strokeColor=inherit;overflow=hidden;fillColor=none;top=0;left=0;bottom=0;right=0;pointerEvents=1;fontSize=12;align=left;spacingLeft=5;" parent="tlHSpGF_E2xz41YYDQiU-160" vertex="1">
          <mxGeometry width="80" height="15" as="geometry">
            <mxRectangle width="80" height="15" as="alternateBounds" />
          </mxGeometry>
        </mxCell>
        <mxCell id="tlHSpGF_E2xz41YYDQiU-164" value="" style="shape=table;startSize=0;container=1;collapsible=0;childLayout=tableLayout;fontSize=11;fillColor=none;strokeColor=none;" parent="1" vertex="1">
          <mxGeometry x="130" y="300" width="80" height="45" as="geometry" />
        </mxCell>
        <mxCell id="tlHSpGF_E2xz41YYDQiU-165" value="" style="shape=tableRow;horizontal=0;startSize=0;swimlaneHead=0;swimlaneBody=0;strokeColor=inherit;top=0;left=0;bottom=0;right=0;collapsible=0;dropTarget=0;fillColor=none;points=[[0,0.5],[1,0.5]];portConstraint=eastwest;fontSize=16;" parent="tlHSpGF_E2xz41YYDQiU-164" vertex="1">
          <mxGeometry width="80" height="15" as="geometry" />
        </mxCell>
        <mxCell id="tlHSpGF_E2xz41YYDQiU-166" value="person" style="shape=partialRectangle;html=1;whiteSpace=wrap;connectable=0;strokeColor=inherit;overflow=hidden;fillColor=none;top=0;left=0;bottom=0;right=0;pointerEvents=1;fontSize=12;align=left;spacingLeft=5;" parent="tlHSpGF_E2xz41YYDQiU-165" vertex="1">
          <mxGeometry width="80" height="15" as="geometry">
            <mxRectangle width="80" height="15" as="alternateBounds" />
          </mxGeometry>
        </mxCell>
        <mxCell id="tlHSpGF_E2xz41YYDQiU-167" value="" style="shape=tableRow;horizontal=0;startSize=0;swimlaneHead=0;swimlaneBody=0;strokeColor=inherit;top=0;left=0;bottom=0;right=0;collapsible=0;dropTarget=0;fillColor=none;points=[[0,0.5],[1,0.5]];portConstraint=eastwest;fontSize=16;" parent="tlHSpGF_E2xz41YYDQiU-164" vertex="1">
          <mxGeometry y="15" width="80" height="15" as="geometry" />
        </mxCell>
        <mxCell id="tlHSpGF_E2xz41YYDQiU-168" value="biospecimen" style="shape=partialRectangle;html=1;whiteSpace=wrap;connectable=0;strokeColor=inherit;overflow=hidden;fillColor=none;top=0;left=0;bottom=0;right=0;pointerEvents=1;fontSize=12;align=left;spacingLeft=5;" parent="tlHSpGF_E2xz41YYDQiU-167" vertex="1">
          <mxGeometry width="80" height="15" as="geometry">
            <mxRectangle width="80" height="15" as="alternateBounds" />
          </mxGeometry>
        </mxCell>
        <mxCell id="tlHSpGF_E2xz41YYDQiU-169" value="" style="shape=tableRow;horizontal=0;startSize=0;swimlaneHead=0;swimlaneBody=0;strokeColor=inherit;top=0;left=0;bottom=0;right=0;collapsible=0;dropTarget=0;fillColor=none;points=[[0,0.5],[1,0.5]];portConstraint=eastwest;fontSize=16;" parent="tlHSpGF_E2xz41YYDQiU-164" vertex="1">
          <mxGeometry y="30" width="80" height="15" as="geometry" />
        </mxCell>
        <mxCell id="tlHSpGF_E2xz41YYDQiU-170" value="device" style="shape=partialRectangle;html=1;whiteSpace=wrap;connectable=0;strokeColor=inherit;overflow=hidden;fillColor=none;top=0;left=0;bottom=0;right=0;pointerEvents=1;fontSize=12;align=left;spacingLeft=5;" parent="tlHSpGF_E2xz41YYDQiU-169" vertex="1">
          <mxGeometry width="80" height="15" as="geometry">
            <mxRectangle width="80" height="15" as="alternateBounds" />
          </mxGeometry>
        </mxCell>
        <mxCell id="tlHSpGF_E2xz41YYDQiU-175" style="edgeStyle=orthogonalEdgeStyle;rounded=0;orthogonalLoop=1;jettySize=auto;html=1;exitX=0;exitY=0.5;exitDx=0;exitDy=0;entryX=1;entryY=0.5;entryDx=0;entryDy=0;" parent="1" source="tlHSpGF_E2xz41YYDQiU-173" target="tlHSpGF_E2xz41YYDQiU-141" edge="1">
          <mxGeometry relative="1" as="geometry" />
        </mxCell>
        <mxCell id="tlHSpGF_E2xz41YYDQiU-176" value="targets" style="edgeLabel;html=1;align=center;verticalAlign=middle;resizable=0;points=[];" parent="tlHSpGF_E2xz41YYDQiU-175" vertex="1" connectable="0">
          <mxGeometry x="-0.1635" y="1" relative="1" as="geometry">
            <mxPoint as="offset" />
          </mxGeometry>
        </mxCell>
        <mxCell id="tlHSpGF_E2xz41YYDQiU-180" style="edgeStyle=orthogonalEdgeStyle;rounded=0;orthogonalLoop=1;jettySize=auto;html=1;exitX=0.5;exitY=1;exitDx=0;exitDy=0;" parent="1" source="tlHSpGF_E2xz41YYDQiU-173" target="tlHSpGF_E2xz41YYDQiU-174" edge="1">
          <mxGeometry relative="1" as="geometry" />
        </mxCell>
        <mxCell id="tlHSpGF_E2xz41YYDQiU-181" value="estimated through" style="edgeLabel;html=1;align=center;verticalAlign=middle;resizable=0;points=[];" parent="tlHSpGF_E2xz41YYDQiU-180" vertex="1" connectable="0">
          <mxGeometry x="-0.1972" y="1" relative="1" as="geometry">
            <mxPoint as="offset" />
          </mxGeometry>
        </mxCell>
        <mxCell id="tlHSpGF_E2xz41YYDQiU-173" value="estimand" style="whiteSpace=wrap;html=1;align=center;" parent="1" vertex="1">
          <mxGeometry x="1130" y="140" width="100" height="40" as="geometry" />
        </mxCell>
        <mxCell id="tlHSpGF_E2xz41YYDQiU-182" style="edgeStyle=orthogonalEdgeStyle;rounded=0;orthogonalLoop=1;jettySize=auto;html=1;exitX=0.5;exitY=1;exitDx=0;exitDy=0;" parent="1" source="tlHSpGF_E2xz41YYDQiU-174" target="tlHSpGF_E2xz41YYDQiU-177" edge="1">
          <mxGeometry relative="1" as="geometry" />
        </mxCell>
        <mxCell id="tlHSpGF_E2xz41YYDQiU-183" value="produces one" style="edgeLabel;html=1;align=center;verticalAlign=middle;resizable=0;points=[];" parent="tlHSpGF_E2xz41YYDQiU-182" vertex="1" connectable="0">
          <mxGeometry x="-0.2662" y="1" relative="1" as="geometry">
            <mxPoint as="offset" />
          </mxGeometry>
        </mxCell>
        <mxCell id="tlHSpGF_E2xz41YYDQiU-191" style="edgeStyle=orthogonalEdgeStyle;rounded=0;orthogonalLoop=1;jettySize=auto;html=1;exitX=1;exitY=0.5;exitDx=0;exitDy=0;" parent="1" source="tlHSpGF_E2xz41YYDQiU-174" target="tlHSpGF_E2xz41YYDQiU-184" edge="1">
          <mxGeometry relative="1" as="geometry" />
        </mxCell>
        <mxCell id="tlHSpGF_E2xz41YYDQiU-192" value="expressed as&lt;br&gt;(is a)" style="edgeLabel;html=1;align=center;verticalAlign=middle;resizable=0;points=[];" parent="tlHSpGF_E2xz41YYDQiU-191" vertex="1" connectable="0">
          <mxGeometry x="-0.2053" y="2" relative="1" as="geometry">
            <mxPoint as="offset" />
          </mxGeometry>
        </mxCell>
        <mxCell id="tlHSpGF_E2xz41YYDQiU-174" value="estimator" style="whiteSpace=wrap;html=1;align=center;" parent="1" vertex="1">
          <mxGeometry x="1130" y="280" width="100" height="40" as="geometry" />
        </mxCell>
        <mxCell id="tlHSpGF_E2xz41YYDQiU-193" style="edgeStyle=orthogonalEdgeStyle;rounded=0;orthogonalLoop=1;jettySize=auto;html=1;exitX=1;exitY=0.5;exitDx=0;exitDy=0;" parent="1" source="tlHSpGF_E2xz41YYDQiU-177" target="tlHSpGF_E2xz41YYDQiU-188" edge="1">
          <mxGeometry relative="1" as="geometry" />
        </mxCell>
        <mxCell id="tlHSpGF_E2xz41YYDQiU-194" value="provided by&lt;br&gt;(is a)" style="edgeLabel;html=1;align=center;verticalAlign=middle;resizable=0;points=[];" parent="tlHSpGF_E2xz41YYDQiU-193" vertex="1" connectable="0">
          <mxGeometry x="-0.2265" y="-3" relative="1" as="geometry">
            <mxPoint as="offset" />
          </mxGeometry>
        </mxCell>
        <mxCell id="tlHSpGF_E2xz41YYDQiU-177" value="estimate" style="whiteSpace=wrap;html=1;align=center;" parent="1" vertex="1">
          <mxGeometry x="1130" y="500" width="100" height="40" as="geometry" />
        </mxCell>
        <mxCell id="tlHSpGF_E2xz41YYDQiU-186" style="edgeStyle=orthogonalEdgeStyle;rounded=0;orthogonalLoop=1;jettySize=auto;html=1;exitX=0.5;exitY=1;exitDx=0;exitDy=0;" parent="1" source="tlHSpGF_E2xz41YYDQiU-184" target="tlHSpGF_E2xz41YYDQiU-185" edge="1">
          <mxGeometry relative="1" as="geometry" />
        </mxCell>
        <mxCell id="tlHSpGF_E2xz41YYDQiU-187" value="composed of" style="edgeLabel;html=1;align=center;verticalAlign=middle;resizable=0;points=[];" parent="tlHSpGF_E2xz41YYDQiU-186" vertex="1" connectable="0">
          <mxGeometry x="-0.1816" y="-1" relative="1" as="geometry">
            <mxPoint as="offset" />
          </mxGeometry>
        </mxCell>
        <mxCell id="tlHSpGF_E2xz41YYDQiU-213" style="edgeStyle=orthogonalEdgeStyle;rounded=0;orthogonalLoop=1;jettySize=auto;html=1;exitX=1;exitY=0.5;exitDx=0;exitDy=0;" parent="1" source="tlHSpGF_E2xz41YYDQiU-184" target="tlHSpGF_E2xz41YYDQiU-201" edge="1">
          <mxGeometry relative="1" as="geometry" />
        </mxCell>
        <mxCell id="tlHSpGF_E2xz41YYDQiU-214" value="instance of" style="edgeLabel;html=1;align=center;verticalAlign=middle;resizable=0;points=[];" parent="tlHSpGF_E2xz41YYDQiU-213" vertex="1" connectable="0">
          <mxGeometry x="-0.1815" y="-1" relative="1" as="geometry">
            <mxPoint as="offset" />
          </mxGeometry>
        </mxCell>
        <mxCell id="tlHSpGF_E2xz41YYDQiU-184" value="analysis process" style="whiteSpace=wrap;html=1;align=center;" parent="1" vertex="1">
          <mxGeometry x="1360" y="280" width="100" height="40" as="geometry" />
        </mxCell>
        <mxCell id="tlHSpGF_E2xz41YYDQiU-189" style="edgeStyle=orthogonalEdgeStyle;rounded=0;orthogonalLoop=1;jettySize=auto;html=1;exitX=0.5;exitY=1;exitDx=0;exitDy=0;entryX=0.5;entryY=0;entryDx=0;entryDy=0;" parent="1" source="tlHSpGF_E2xz41YYDQiU-185" target="tlHSpGF_E2xz41YYDQiU-188" edge="1">
          <mxGeometry relative="1" as="geometry" />
        </mxCell>
        <mxCell id="tlHSpGF_E2xz41YYDQiU-190" value="produces" style="edgeLabel;html=1;align=center;verticalAlign=middle;resizable=0;points=[];" parent="tlHSpGF_E2xz41YYDQiU-189" vertex="1" connectable="0">
          <mxGeometry x="-0.1816" relative="1" as="geometry">
            <mxPoint as="offset" />
          </mxGeometry>
        </mxCell>
        <mxCell id="tlHSpGF_E2xz41YYDQiU-215" style="edgeStyle=orthogonalEdgeStyle;rounded=0;orthogonalLoop=1;jettySize=auto;html=1;exitX=1;exitY=0.5;exitDx=0;exitDy=0;" parent="1" source="tlHSpGF_E2xz41YYDQiU-185" target="tlHSpGF_E2xz41YYDQiU-202" edge="1">
          <mxGeometry relative="1" as="geometry" />
        </mxCell>
        <mxCell id="tlHSpGF_E2xz41YYDQiU-216" value="instance of" style="edgeLabel;html=1;align=center;verticalAlign=middle;resizable=0;points=[];" parent="tlHSpGF_E2xz41YYDQiU-215" vertex="1" connectable="0">
          <mxGeometry x="-0.1815" y="-1" relative="1" as="geometry">
            <mxPoint as="offset" />
          </mxGeometry>
        </mxCell>
        <mxCell id="tlHSpGF_E2xz41YYDQiU-185" value="analysis method" style="whiteSpace=wrap;html=1;align=center;" parent="1" vertex="1">
          <mxGeometry x="1360" y="400" width="100" height="40" as="geometry" />
        </mxCell>
        <mxCell id="tlHSpGF_E2xz41YYDQiU-221" style="edgeStyle=orthogonalEdgeStyle;rounded=0;orthogonalLoop=1;jettySize=auto;html=1;exitX=1;exitY=0.5;exitDx=0;exitDy=0;entryX=0;entryY=0.5;entryDx=0;entryDy=0;" parent="1" source="tlHSpGF_E2xz41YYDQiU-188" target="tlHSpGF_E2xz41YYDQiU-203" edge="1">
          <mxGeometry relative="1" as="geometry" />
        </mxCell>
        <mxCell id="tlHSpGF_E2xz41YYDQiU-222" value="instance of" style="edgeLabel;html=1;align=center;verticalAlign=middle;resizable=0;points=[];" parent="tlHSpGF_E2xz41YYDQiU-221" vertex="1" connectable="0">
          <mxGeometry x="-0.2926" relative="1" as="geometry">
            <mxPoint x="8" as="offset" />
          </mxGeometry>
        </mxCell>
        <mxCell id="tlHSpGF_E2xz41YYDQiU-188" value="statistic" style="whiteSpace=wrap;html=1;align=center;" parent="1" vertex="1">
          <mxGeometry x="1360" y="500" width="100" height="40" as="geometry" />
        </mxCell>
        <mxCell id="tlHSpGF_E2xz41YYDQiU-199" value="an analysis process is not necessarily related to an objective" style="shape=note;whiteSpace=wrap;html=1;backgroundOutline=1;fontColor=#000000;darkOpacity=0.05;fillColor=#FFF9B2;strokeColor=none;fillStyle=solid;direction=west;gradientDirection=north;gradientColor=#FFF2A1;shadow=1;size=20;pointerEvents=1;" parent="1" vertex="1">
          <mxGeometry x="1470" y="210" width="140" height="60" as="geometry" />
        </mxCell>
        <mxCell id="tlHSpGF_E2xz41YYDQiU-200" value="investigate if an objective may be expressed through more than one estimand" style="shape=note;whiteSpace=wrap;html=1;backgroundOutline=1;fontColor=#000000;darkOpacity=0.05;fillColor=#FFF9B2;strokeColor=none;fillStyle=solid;direction=west;gradientDirection=north;gradientColor=#FFF2A1;shadow=1;size=20;pointerEvents=1;" parent="1" vertex="1">
          <mxGeometry x="1230" y="80" width="140" height="60" as="geometry" />
        </mxCell>
        <mxCell id="tlHSpGF_E2xz41YYDQiU-207" style="edgeStyle=orthogonalEdgeStyle;rounded=0;orthogonalLoop=1;jettySize=auto;html=1;exitX=0.5;exitY=1;exitDx=0;exitDy=0;" parent="1" source="tlHSpGF_E2xz41YYDQiU-201" target="tlHSpGF_E2xz41YYDQiU-202" edge="1">
          <mxGeometry relative="1" as="geometry" />
        </mxCell>
        <mxCell id="tlHSpGF_E2xz41YYDQiU-208" value="composed of" style="edgeLabel;html=1;align=center;verticalAlign=middle;resizable=0;points=[];" parent="tlHSpGF_E2xz41YYDQiU-207" vertex="1" connectable="0">
          <mxGeometry x="-0.2917" y="-1" relative="1" as="geometry">
            <mxPoint as="offset" />
          </mxGeometry>
        </mxCell>
        <mxCell id="tlHSpGF_E2xz41YYDQiU-201" value="analysis process template" style="whiteSpace=wrap;html=1;align=center;" parent="1" vertex="1">
          <mxGeometry x="1550" y="280" width="100" height="40" as="geometry" />
        </mxCell>
        <mxCell id="tlHSpGF_E2xz41YYDQiU-209" style="edgeStyle=orthogonalEdgeStyle;rounded=0;orthogonalLoop=1;jettySize=auto;html=1;exitX=0.5;exitY=1;exitDx=0;exitDy=0;" parent="1" source="tlHSpGF_E2xz41YYDQiU-202" target="tlHSpGF_E2xz41YYDQiU-203" edge="1">
          <mxGeometry relative="1" as="geometry" />
        </mxCell>
        <mxCell id="tlHSpGF_E2xz41YYDQiU-210" value="produces" style="edgeLabel;html=1;align=center;verticalAlign=middle;resizable=0;points=[];" parent="tlHSpGF_E2xz41YYDQiU-209" vertex="1" connectable="0">
          <mxGeometry x="-0.25" y="3" relative="1" as="geometry">
            <mxPoint as="offset" />
          </mxGeometry>
        </mxCell>
        <mxCell id="tlHSpGF_E2xz41YYDQiU-217" style="edgeStyle=orthogonalEdgeStyle;rounded=0;orthogonalLoop=1;jettySize=auto;html=1;exitX=1;exitY=0.5;exitDx=0;exitDy=0;entryX=0;entryY=0.5;entryDx=0;entryDy=0;" parent="1" source="tlHSpGF_E2xz41YYDQiU-202" target="tlHSpGF_E2xz41YYDQiU-205" edge="1">
          <mxGeometry relative="1" as="geometry" />
        </mxCell>
        <mxCell id="tlHSpGF_E2xz41YYDQiU-218" value="instance of" style="edgeLabel;html=1;align=center;verticalAlign=middle;resizable=0;points=[];" parent="tlHSpGF_E2xz41YYDQiU-217" vertex="1" connectable="0">
          <mxGeometry x="-0.0897" y="-1" relative="1" as="geometry">
            <mxPoint as="offset" />
          </mxGeometry>
        </mxCell>
        <mxCell id="tlHSpGF_E2xz41YYDQiU-202" value="analysis method in process template" style="whiteSpace=wrap;html=1;align=center;" parent="1" vertex="1">
          <mxGeometry x="1550" y="400" width="100" height="40" as="geometry" />
        </mxCell>
        <mxCell id="tlHSpGF_E2xz41YYDQiU-219" style="edgeStyle=orthogonalEdgeStyle;rounded=0;orthogonalLoop=1;jettySize=auto;html=1;exitX=1;exitY=0.5;exitDx=0;exitDy=0;" parent="1" source="tlHSpGF_E2xz41YYDQiU-203" target="tlHSpGF_E2xz41YYDQiU-206" edge="1">
          <mxGeometry relative="1" as="geometry" />
        </mxCell>
        <mxCell id="tlHSpGF_E2xz41YYDQiU-220" value="instance of" style="edgeLabel;html=1;align=center;verticalAlign=middle;resizable=0;points=[];" parent="tlHSpGF_E2xz41YYDQiU-219" vertex="1" connectable="0">
          <mxGeometry x="-0.1471" y="-1" relative="1" as="geometry">
            <mxPoint as="offset" />
          </mxGeometry>
        </mxCell>
        <mxCell id="tlHSpGF_E2xz41YYDQiU-203" value="statistic in process placeholder" style="whiteSpace=wrap;html=1;align=center;" parent="1" vertex="1">
          <mxGeometry x="1550" y="500" width="100" height="40" as="geometry" />
        </mxCell>
        <mxCell id="tlHSpGF_E2xz41YYDQiU-211" style="edgeStyle=orthogonalEdgeStyle;rounded=0;orthogonalLoop=1;jettySize=auto;html=1;exitX=0.5;exitY=1;exitDx=0;exitDy=0;" parent="1" source="tlHSpGF_E2xz41YYDQiU-205" target="tlHSpGF_E2xz41YYDQiU-206" edge="1">
          <mxGeometry relative="1" as="geometry" />
        </mxCell>
        <mxCell id="tlHSpGF_E2xz41YYDQiU-212" value="produces" style="edgeLabel;html=1;align=center;verticalAlign=middle;resizable=0;points=[];" parent="tlHSpGF_E2xz41YYDQiU-211" vertex="1" connectable="0">
          <mxGeometry x="-0.1111" y="-2" relative="1" as="geometry">
            <mxPoint as="offset" />
          </mxGeometry>
        </mxCell>
        <mxCell id="tlHSpGF_E2xz41YYDQiU-205" value="analysis method template" style="whiteSpace=wrap;html=1;align=center;" parent="1" vertex="1">
          <mxGeometry x="1795" y="400" width="100" height="40" as="geometry" />
        </mxCell>
        <mxCell id="tlHSpGF_E2xz41YYDQiU-206" value="statistic placeholder" style="whiteSpace=wrap;html=1;align=center;" parent="1" vertex="1">
          <mxGeometry x="1795" y="500" width="100" height="40" as="geometry" />
        </mxCell>
        <mxCell id="tlHSpGF_E2xz41YYDQiU-223" value="to ARS AnalysisMethod?" style="text;html=1;align=center;verticalAlign=middle;whiteSpace=wrap;rounded=0;" parent="1" vertex="1">
          <mxGeometry x="1450" y="430" width="90" height="30" as="geometry" />
        </mxCell>
        <mxCell id="tlHSpGF_E2xz41YYDQiU-224" value="to ARS operation?" style="text;html=1;align=center;verticalAlign=middle;whiteSpace=wrap;rounded=0;" parent="1" vertex="1">
          <mxGeometry x="1420" y="550" width="60" height="30" as="geometry" />
        </mxCell>
        <mxCell id="tlHSpGF_E2xz41YYDQiU-225" value="" style="shape=curlyBracket;whiteSpace=wrap;html=1;rounded=1;flipH=1;labelPosition=right;verticalLabelPosition=middle;align=left;verticalAlign=middle;size=0.5;rotation=90;" parent="1" vertex="1">
          <mxGeometry x="1716.25" y="440" width="30" height="347.5" as="geometry" />
        </mxCell>
        <mxCell id="tlHSpGF_E2xz41YYDQiU-226" value="entries in reference library" style="text;html=1;align=center;verticalAlign=middle;whiteSpace=wrap;rounded=0;" parent="1" vertex="1">
          <mxGeometry x="1661.25" y="640" width="140" height="60" as="geometry" />
        </mxCell>
        <mxCell id="tlHSpGF_E2xz41YYDQiU-228" value="related to stato entries" style="text;html=1;align=center;verticalAlign=middle;whiteSpace=wrap;rounded=0;" parent="1" vertex="1">
          <mxGeometry x="1930" y="450" width="140" height="40" as="geometry" />
        </mxCell>
        <mxCell id="tlHSpGF_E2xz41YYDQiU-229" value="" style="shape=curlyBracket;whiteSpace=wrap;html=1;rounded=1;flipH=1;labelPosition=right;verticalLabelPosition=middle;align=left;verticalAlign=middle;" parent="1" vertex="1">
          <mxGeometry x="1910" y="400" width="20" height="140" as="geometry" />
        </mxCell>
        <mxCell id="tlHSpGF_E2xz41YYDQiU-230" value="to ARS analysis?" style="text;html=1;align=center;verticalAlign=middle;whiteSpace=wrap;rounded=0;" parent="1" vertex="1">
          <mxGeometry x="1450" y="320" width="60" height="30" as="geometry" />
        </mxCell>
        <mxCell id="kIMrEEVXeaMWXLV_XyzS-2" style="edgeStyle=orthogonalEdgeStyle;rounded=0;orthogonalLoop=1;jettySize=auto;html=1;" edge="1" parent="1" source="kIMrEEVXeaMWXLV_XyzS-1" target="tlHSpGF_E2xz41YYDQiU-85">
          <mxGeometry relative="1" as="geometry" />
        </mxCell>
        <mxCell id="kIMrEEVXeaMWXLV_XyzS-3" value="Uses" style="edgeLabel;html=1;align=center;verticalAlign=middle;resizable=0;points=[];" vertex="1" connectable="0" parent="kIMrEEVXeaMWXLV_XyzS-2">
          <mxGeometry x="-0.1859" y="-1" relative="1" as="geometry">
            <mxPoint as="offset" />
          </mxGeometry>
        </mxCell>
        <mxCell id="kIMrEEVXeaMWXLV_XyzS-4" style="edgeStyle=orthogonalEdgeStyle;rounded=0;orthogonalLoop=1;jettySize=auto;html=1;entryX=0;entryY=0.25;entryDx=0;entryDy=0;" edge="1" parent="1" source="kIMrEEVXeaMWXLV_XyzS-1" target="tlHSpGF_E2xz41YYDQiU-136">
          <mxGeometry relative="1" as="geometry" />
        </mxCell>
        <mxCell id="kIMrEEVXeaMWXLV_XyzS-5" value="fullfills" style="edgeLabel;html=1;align=center;verticalAlign=middle;resizable=0;points=[];" vertex="1" connectable="0" parent="kIMrEEVXeaMWXLV_XyzS-4">
          <mxGeometry x="-0.2841" y="1" relative="1" as="geometry">
            <mxPoint as="offset" />
          </mxGeometry>
        </mxCell>
        <mxCell id="kIMrEEVXeaMWXLV_XyzS-1" value="&lt;font style=&quot;color: rgb(0, 153, 153);&quot;&gt;collection purpose&lt;/font&gt;" style="whiteSpace=wrap;html=1;align=center;strokeColor=#33FFFF;" vertex="1" parent="1">
          <mxGeometry x="325" y="40" width="100" height="40" as="geometry" />
        </mxCell>
        <mxCell id="kIMrEEVXeaMWXLV_XyzS-6" value="event" style="shape=partialRectangle;html=1;whiteSpace=wrap;connectable=0;strokeColor=inherit;overflow=hidden;fillColor=none;top=0;left=0;bottom=0;right=0;pointerEvents=1;fontSize=12;align=left;spacingLeft=5;" vertex="1" parent="1">
          <mxGeometry x="340" y="560" width="80" height="15" as="geometry">
            <mxRectangle width="80" height="15" as="alternateBounds" />
          </mxGeometry>
        </mxCell>
        <mxCell id="kIMrEEVXeaMWXLV_XyzS-53" style="edgeStyle=orthogonalEdgeStyle;rounded=0;orthogonalLoop=1;jettySize=auto;html=1;exitX=1;exitY=0.5;exitDx=0;exitDy=0;entryX=0;entryY=0.5;entryDx=0;entryDy=0;" edge="1" parent="1" source="kIMrEEVXeaMWXLV_XyzS-16" target="kIMrEEVXeaMWXLV_XyzS-56">
          <mxGeometry relative="1" as="geometry">
            <Array as="points">
              <mxPoint x="1150" y="900" />
              <mxPoint x="1150" y="740" />
            </Array>
          </mxGeometry>
        </mxCell>
        <mxCell id="kIMrEEVXeaMWXLV_XyzS-57" value="parameterized by" style="edgeLabel;html=1;align=center;verticalAlign=middle;resizable=0;points=[];" vertex="1" connectable="0" parent="kIMrEEVXeaMWXLV_XyzS-53">
          <mxGeometry x="0.7208" y="-1" relative="1" as="geometry">
            <mxPoint x="-20" y="-1" as="offset" />
          </mxGeometry>
        </mxCell>
        <mxCell id="kIMrEEVXeaMWXLV_XyzS-54" style="edgeStyle=orthogonalEdgeStyle;rounded=0;orthogonalLoop=1;jettySize=auto;html=1;exitX=1;exitY=0.5;exitDx=0;exitDy=0;" edge="1" parent="1" source="kIMrEEVXeaMWXLV_XyzS-16" target="kIMrEEVXeaMWXLV_XyzS-35">
          <mxGeometry relative="1" as="geometry">
            <Array as="points">
              <mxPoint x="1150" y="900" />
              <mxPoint x="1150" y="920" />
            </Array>
          </mxGeometry>
        </mxCell>
        <mxCell id="kIMrEEVXeaMWXLV_XyzS-55" value="applies to" style="edgeLabel;html=1;align=center;verticalAlign=middle;resizable=0;points=[];" vertex="1" connectable="0" parent="kIMrEEVXeaMWXLV_XyzS-54">
          <mxGeometry x="0.3275" y="1" relative="1" as="geometry">
            <mxPoint x="10" y="1" as="offset" />
          </mxGeometry>
        </mxCell>
        <mxCell id="kIMrEEVXeaMWXLV_XyzS-16" value="analysis method" style="whiteSpace=wrap;html=1;align=center;" vertex="1" parent="1">
          <mxGeometry x="1030" y="880" width="100" height="40" as="geometry" />
        </mxCell>
        <mxCell id="kIMrEEVXeaMWXLV_XyzS-45" style="edgeStyle=orthogonalEdgeStyle;rounded=0;orthogonalLoop=1;jettySize=auto;html=1;entryX=0.5;entryY=1;entryDx=0;entryDy=0;exitX=1;exitY=0.25;exitDx=0;exitDy=0;" edge="1" parent="1" source="kIMrEEVXeaMWXLV_XyzS-17" target="kIMrEEVXeaMWXLV_XyzS-38">
          <mxGeometry relative="1" as="geometry" />
        </mxCell>
        <mxCell id="kIMrEEVXeaMWXLV_XyzS-46" value="may be qualified by" style="edgeLabel;html=1;align=center;verticalAlign=middle;resizable=0;points=[];" vertex="1" connectable="0" parent="kIMrEEVXeaMWXLV_XyzS-45">
          <mxGeometry x="-0.2584" relative="1" as="geometry">
            <mxPoint x="74" y="-7" as="offset" />
          </mxGeometry>
        </mxCell>
        <mxCell id="kIMrEEVXeaMWXLV_XyzS-65" style="edgeStyle=orthogonalEdgeStyle;rounded=0;orthogonalLoop=1;jettySize=auto;html=1;entryX=0;entryY=0.25;entryDx=0;entryDy=0;exitX=1;exitY=0.75;exitDx=0;exitDy=0;" edge="1" parent="1" source="kIMrEEVXeaMWXLV_XyzS-17" target="kIMrEEVXeaMWXLV_XyzS-62">
          <mxGeometry relative="1" as="geometry">
            <mxPoint x="1130" y="1070" as="sourcePoint" />
          </mxGeometry>
        </mxCell>
        <mxCell id="kIMrEEVXeaMWXLV_XyzS-66" value="may be qualified by" style="edgeLabel;html=1;align=center;verticalAlign=middle;resizable=0;points=[];" vertex="1" connectable="0" parent="kIMrEEVXeaMWXLV_XyzS-65">
          <mxGeometry x="0.2327" relative="1" as="geometry">
            <mxPoint as="offset" />
          </mxGeometry>
        </mxCell>
        <mxCell id="kIMrEEVXeaMWXLV_XyzS-17" value="statistic" style="whiteSpace=wrap;html=1;align=center;" vertex="1" parent="1">
          <mxGeometry x="1030" y="1020" width="100" height="30" as="geometry" />
        </mxCell>
        <mxCell id="kIMrEEVXeaMWXLV_XyzS-18" style="edgeStyle=orthogonalEdgeStyle;rounded=0;orthogonalLoop=1;jettySize=auto;html=1;exitX=0.5;exitY=1;exitDx=0;exitDy=0;entryX=0.5;entryY=0;entryDx=0;entryDy=0;" edge="1" source="kIMrEEVXeaMWXLV_XyzS-16" target="kIMrEEVXeaMWXLV_XyzS-17" parent="1">
          <mxGeometry relative="1" as="geometry" />
        </mxCell>
        <mxCell id="kIMrEEVXeaMWXLV_XyzS-19" value="produces" style="edgeLabel;html=1;align=center;verticalAlign=middle;resizable=0;points=[];" vertex="1" connectable="0" parent="kIMrEEVXeaMWXLV_XyzS-18">
          <mxGeometry x="-0.1816" relative="1" as="geometry">
            <mxPoint as="offset" />
          </mxGeometry>
        </mxCell>
        <mxCell id="kIMrEEVXeaMWXLV_XyzS-22" style="edgeStyle=orthogonalEdgeStyle;rounded=0;orthogonalLoop=1;jettySize=auto;html=1;entryX=0;entryY=0.5;entryDx=0;entryDy=0;exitX=1;exitY=0.5;exitDx=0;exitDy=0;" edge="1" parent="1" source="kIMrEEVXeaMWXLV_XyzS-20" target="kIMrEEVXeaMWXLV_XyzS-21">
          <mxGeometry relative="1" as="geometry">
            <Array as="points">
              <mxPoint x="1430" y="820" />
              <mxPoint x="1430" y="780" />
            </Array>
          </mxGeometry>
        </mxCell>
        <mxCell id="kIMrEEVXeaMWXLV_XyzS-23" value="expressed as" style="edgeLabel;html=1;align=center;verticalAlign=middle;resizable=0;points=[];" vertex="1" connectable="0" parent="kIMrEEVXeaMWXLV_XyzS-22">
          <mxGeometry x="0.3316" y="-1" relative="1" as="geometry">
            <mxPoint as="offset" />
          </mxGeometry>
        </mxCell>
        <mxCell id="kIMrEEVXeaMWXLV_XyzS-26" style="edgeStyle=orthogonalEdgeStyle;rounded=0;orthogonalLoop=1;jettySize=auto;html=1;exitX=1;exitY=0.5;exitDx=0;exitDy=0;entryX=0.152;entryY=0.053;entryDx=0;entryDy=0;entryPerimeter=0;" edge="1" parent="1" source="kIMrEEVXeaMWXLV_XyzS-20" target="kIMrEEVXeaMWXLV_XyzS-38">
          <mxGeometry relative="1" as="geometry">
            <mxPoint x="1539.9999999999995" y="819.9999999999998" as="targetPoint" />
          </mxGeometry>
        </mxCell>
        <mxCell id="kIMrEEVXeaMWXLV_XyzS-29" value="involves" style="edgeLabel;html=1;align=center;verticalAlign=middle;resizable=0;points=[];" vertex="1" connectable="0" parent="kIMrEEVXeaMWXLV_XyzS-26">
          <mxGeometry x="0.3848" y="1" relative="1" as="geometry">
            <mxPoint x="-45" y="-65" as="offset" />
          </mxGeometry>
        </mxCell>
        <mxCell id="kIMrEEVXeaMWXLV_XyzS-27" style="edgeStyle=orthogonalEdgeStyle;rounded=0;orthogonalLoop=1;jettySize=auto;html=1;entryX=0;entryY=0.5;entryDx=0;entryDy=0;" edge="1" parent="1" source="kIMrEEVXeaMWXLV_XyzS-20" target="kIMrEEVXeaMWXLV_XyzS-25">
          <mxGeometry relative="1" as="geometry">
            <Array as="points">
              <mxPoint x="1430" y="820" />
              <mxPoint x="1430" y="860" />
            </Array>
          </mxGeometry>
        </mxCell>
        <mxCell id="kIMrEEVXeaMWXLV_XyzS-30" value="parameterized by" style="edgeLabel;html=1;align=center;verticalAlign=middle;resizable=0;points=[];" vertex="1" connectable="0" parent="kIMrEEVXeaMWXLV_XyzS-27">
          <mxGeometry x="0.4409" relative="1" as="geometry">
            <mxPoint as="offset" />
          </mxGeometry>
        </mxCell>
        <mxCell id="kIMrEEVXeaMWXLV_XyzS-58" style="edgeStyle=orthogonalEdgeStyle;rounded=0;orthogonalLoop=1;jettySize=auto;html=1;exitX=0.5;exitY=0;exitDx=0;exitDy=0;entryX=0.5;entryY=1;entryDx=0;entryDy=0;" edge="1" parent="1" source="kIMrEEVXeaMWXLV_XyzS-20" target="kIMrEEVXeaMWXLV_XyzS-56">
          <mxGeometry relative="1" as="geometry" />
        </mxCell>
        <mxCell id="kIMrEEVXeaMWXLV_XyzS-59" value="is a" style="edgeLabel;html=1;align=center;verticalAlign=middle;resizable=0;points=[];" vertex="1" connectable="0" parent="kIMrEEVXeaMWXLV_XyzS-58">
          <mxGeometry x="0.318" y="-1" relative="1" as="geometry">
            <mxPoint x="-9" y="27" as="offset" />
          </mxGeometry>
        </mxCell>
        <mxCell id="kIMrEEVXeaMWXLV_XyzS-20" value="model" style="whiteSpace=wrap;html=1;align=center;" vertex="1" parent="1">
          <mxGeometry x="1275" y="810" width="100" height="20" as="geometry" />
        </mxCell>
        <mxCell id="kIMrEEVXeaMWXLV_XyzS-21" value="formal expression" style="whiteSpace=wrap;html=1;align=center;" vertex="1" parent="1">
          <mxGeometry x="1540" y="770" width="100" height="20" as="geometry" />
        </mxCell>
        <mxCell id="kIMrEEVXeaMWXLV_XyzS-25" value="model parameter" style="whiteSpace=wrap;html=1;align=center;" vertex="1" parent="1">
          <mxGeometry x="1540" y="850" width="100" height="20" as="geometry" />
        </mxCell>
        <mxCell id="kIMrEEVXeaMWXLV_XyzS-39" style="edgeStyle=orthogonalEdgeStyle;rounded=0;orthogonalLoop=1;jettySize=auto;html=1;exitX=1;exitY=0.5;exitDx=0;exitDy=0;entryX=0;entryY=0.5;entryDx=0;entryDy=0;" edge="1" parent="1" source="kIMrEEVXeaMWXLV_XyzS-35" target="kIMrEEVXeaMWXLV_XyzS-37">
          <mxGeometry relative="1" as="geometry" />
        </mxCell>
        <mxCell id="kIMrEEVXeaMWXLV_XyzS-40" value="filtered by" style="edgeLabel;html=1;align=center;verticalAlign=middle;resizable=0;points=[];" vertex="1" connectable="0" parent="kIMrEEVXeaMWXLV_XyzS-39">
          <mxGeometry x="-0.0986" y="2" relative="1" as="geometry">
            <mxPoint x="23" y="2" as="offset" />
          </mxGeometry>
        </mxCell>
        <mxCell id="kIMrEEVXeaMWXLV_XyzS-41" style="edgeStyle=orthogonalEdgeStyle;rounded=0;orthogonalLoop=1;jettySize=auto;html=1;exitX=1;exitY=0.5;exitDx=0;exitDy=0;entryX=0;entryY=0.5;entryDx=0;entryDy=0;" edge="1" parent="1" source="kIMrEEVXeaMWXLV_XyzS-35" target="kIMrEEVXeaMWXLV_XyzS-38">
          <mxGeometry relative="1" as="geometry">
            <Array as="points">
              <mxPoint x="1410" y="920" />
              <mxPoint x="1410" y="980" />
            </Array>
          </mxGeometry>
        </mxCell>
        <mxCell id="kIMrEEVXeaMWXLV_XyzS-42" value="set of" style="edgeLabel;html=1;align=center;verticalAlign=middle;resizable=0;points=[];" vertex="1" connectable="0" parent="kIMrEEVXeaMWXLV_XyzS-41">
          <mxGeometry x="0.3127" relative="1" as="geometry">
            <mxPoint as="offset" />
          </mxGeometry>
        </mxCell>
        <mxCell id="kIMrEEVXeaMWXLV_XyzS-35" value="analysis data" style="whiteSpace=wrap;html=1;align=center;" vertex="1" parent="1">
          <mxGeometry x="1275" y="910" width="100" height="20" as="geometry" />
        </mxCell>
        <mxCell id="kIMrEEVXeaMWXLV_XyzS-36" value="datapoint" style="whiteSpace=wrap;html=1;align=center;" vertex="1" parent="1">
          <mxGeometry x="1701.25" y="970" width="100" height="20" as="geometry" />
        </mxCell>
        <mxCell id="kIMrEEVXeaMWXLV_XyzS-51" style="edgeStyle=orthogonalEdgeStyle;rounded=0;orthogonalLoop=1;jettySize=auto;html=1;exitX=0.5;exitY=1;exitDx=0;exitDy=0;entryX=0.5;entryY=0;entryDx=0;entryDy=0;" edge="1" parent="1" source="kIMrEEVXeaMWXLV_XyzS-37" target="kIMrEEVXeaMWXLV_XyzS-38">
          <mxGeometry relative="1" as="geometry" />
        </mxCell>
        <mxCell id="kIMrEEVXeaMWXLV_XyzS-52" value="involves" style="edgeLabel;html=1;align=center;verticalAlign=middle;resizable=0;points=[];" vertex="1" connectable="0" parent="kIMrEEVXeaMWXLV_XyzS-51">
          <mxGeometry x="-0.1603" y="1" relative="1" as="geometry">
            <mxPoint as="offset" />
          </mxGeometry>
        </mxCell>
        <mxCell id="kIMrEEVXeaMWXLV_XyzS-37" value="data filter" style="whiteSpace=wrap;html=1;align=center;" vertex="1" parent="1">
          <mxGeometry x="1490" y="910" width="90" height="20" as="geometry" />
        </mxCell>
        <mxCell id="kIMrEEVXeaMWXLV_XyzS-43" style="edgeStyle=orthogonalEdgeStyle;rounded=0;orthogonalLoop=1;jettySize=auto;html=1;exitX=1;exitY=0.5;exitDx=0;exitDy=0;entryX=0;entryY=0.5;entryDx=0;entryDy=0;" edge="1" parent="1" source="kIMrEEVXeaMWXLV_XyzS-38" target="kIMrEEVXeaMWXLV_XyzS-36">
          <mxGeometry relative="1" as="geometry" />
        </mxCell>
        <mxCell id="kIMrEEVXeaMWXLV_XyzS-44" value="express" style="edgeLabel;html=1;align=center;verticalAlign=middle;resizable=0;points=[];" vertex="1" connectable="0" parent="kIMrEEVXeaMWXLV_XyzS-43">
          <mxGeometry x="-0.3275" y="-3" relative="1" as="geometry">
            <mxPoint x="19" y="-3" as="offset" />
          </mxGeometry>
        </mxCell>
        <mxCell id="kIMrEEVXeaMWXLV_XyzS-63" style="edgeStyle=orthogonalEdgeStyle;rounded=0;orthogonalLoop=1;jettySize=auto;html=1;exitX=0.75;exitY=1;exitDx=0;exitDy=0;entryX=0.5;entryY=0;entryDx=0;entryDy=0;" edge="1" parent="1" source="kIMrEEVXeaMWXLV_XyzS-38" target="kIMrEEVXeaMWXLV_XyzS-62">
          <mxGeometry relative="1" as="geometry" />
        </mxCell>
        <mxCell id="kIMrEEVXeaMWXLV_XyzS-64" value="has" style="edgeLabel;html=1;align=center;verticalAlign=middle;resizable=0;points=[];" vertex="1" connectable="0" parent="kIMrEEVXeaMWXLV_XyzS-63">
          <mxGeometry x="-0.634" y="2" relative="1" as="geometry">
            <mxPoint as="offset" />
          </mxGeometry>
        </mxCell>
        <mxCell id="kIMrEEVXeaMWXLV_XyzS-38" value="analysis variable" style="whiteSpace=wrap;html=1;align=center;" vertex="1" parent="1">
          <mxGeometry x="1490" y="970" width="100" height="20" as="geometry" />
        </mxCell>
        <mxCell id="kIMrEEVXeaMWXLV_XyzS-47" style="edgeStyle=orthogonalEdgeStyle;rounded=0;orthogonalLoop=1;jettySize=auto;html=1;exitX=1;exitY=0.5;exitDx=0;exitDy=0;entryX=0.646;entryY=0.867;entryDx=0;entryDy=0;entryPerimeter=0;" edge="1" parent="1" source="kIMrEEVXeaMWXLV_XyzS-17" target="kIMrEEVXeaMWXLV_XyzS-25">
          <mxGeometry relative="1" as="geometry" />
        </mxCell>
        <mxCell id="kIMrEEVXeaMWXLV_XyzS-48" value="may be qualified by" style="edgeLabel;html=1;align=center;verticalAlign=middle;resizable=0;points=[];" vertex="1" connectable="0" parent="kIMrEEVXeaMWXLV_XyzS-47">
          <mxGeometry x="-0.5592" y="1" relative="1" as="geometry">
            <mxPoint as="offset" />
          </mxGeometry>
        </mxCell>
        <mxCell id="kIMrEEVXeaMWXLV_XyzS-60" style="edgeStyle=orthogonalEdgeStyle;rounded=0;orthogonalLoop=1;jettySize=auto;html=1;exitX=1;exitY=0.5;exitDx=0;exitDy=0;entryX=0.25;entryY=0;entryDx=0;entryDy=0;" edge="1" parent="1" source="kIMrEEVXeaMWXLV_XyzS-56" target="kIMrEEVXeaMWXLV_XyzS-38">
          <mxGeometry relative="1" as="geometry" />
        </mxCell>
        <mxCell id="kIMrEEVXeaMWXLV_XyzS-61" value="may involve" style="edgeLabel;html=1;align=center;verticalAlign=middle;resizable=0;points=[];" vertex="1" connectable="0" parent="kIMrEEVXeaMWXLV_XyzS-60">
          <mxGeometry x="-0.7878" y="1" relative="1" as="geometry">
            <mxPoint as="offset" />
          </mxGeometry>
        </mxCell>
        <mxCell id="kIMrEEVXeaMWXLV_XyzS-56" value="method parameter" style="whiteSpace=wrap;html=1;align=center;" vertex="1" parent="1">
          <mxGeometry x="1260" y="730" width="115" height="20" as="geometry" />
        </mxCell>
        <mxCell id="kIMrEEVXeaMWXLV_XyzS-7" value="" style="shape=table;startSize=0;container=1;collapsible=0;childLayout=tableLayout;fontSize=11;fillColor=none;strokeColor=none;" vertex="1" parent="1">
          <mxGeometry x="440" y="80" width="130" height="92" as="geometry" />
        </mxCell>
        <mxCell id="kIMrEEVXeaMWXLV_XyzS-8" value="" style="shape=tableRow;horizontal=0;startSize=0;swimlaneHead=0;swimlaneBody=0;strokeColor=inherit;top=0;left=0;bottom=0;right=0;collapsible=0;dropTarget=0;fillColor=none;points=[[0,0.5],[1,0.5]];portConstraint=eastwest;fontSize=16;" vertex="1" parent="kIMrEEVXeaMWXLV_XyzS-7">
          <mxGeometry width="130" height="20" as="geometry" />
        </mxCell>
        <mxCell id="kIMrEEVXeaMWXLV_XyzS-9" value="&lt;font style=&quot;color: rgb(0, 153, 153);&quot;&gt;fullfilling objective&lt;/font&gt;" style="shape=partialRectangle;html=1;whiteSpace=wrap;connectable=0;strokeColor=inherit;overflow=hidden;fillColor=none;top=0;left=0;bottom=0;right=0;pointerEvents=1;fontSize=12;align=left;spacingLeft=5;" vertex="1" parent="kIMrEEVXeaMWXLV_XyzS-8">
          <mxGeometry width="130" height="20" as="geometry">
            <mxRectangle width="130" height="20" as="alternateBounds" />
          </mxGeometry>
        </mxCell>
        <mxCell id="kIMrEEVXeaMWXLV_XyzS-10" value="" style="shape=tableRow;horizontal=0;startSize=0;swimlaneHead=0;swimlaneBody=0;strokeColor=inherit;top=0;left=0;bottom=0;right=0;collapsible=0;dropTarget=0;fillColor=none;points=[[0,0.5],[1,0.5]];portConstraint=eastwest;fontSize=16;" vertex="1" parent="kIMrEEVXeaMWXLV_XyzS-7">
          <mxGeometry y="20" width="130" height="20" as="geometry" />
        </mxCell>
        <mxCell id="kIMrEEVXeaMWXLV_XyzS-11" value="&lt;font style=&quot;color: rgb(0, 153, 153);&quot;&gt;monitor trial&lt;/font&gt;" style="shape=partialRectangle;html=1;whiteSpace=wrap;connectable=0;strokeColor=inherit;overflow=hidden;fillColor=none;top=0;left=0;bottom=0;right=0;pointerEvents=1;fontSize=12;align=left;spacingLeft=5;" vertex="1" parent="kIMrEEVXeaMWXLV_XyzS-10">
          <mxGeometry width="130" height="20" as="geometry">
            <mxRectangle width="130" height="20" as="alternateBounds" />
          </mxGeometry>
        </mxCell>
        <mxCell id="kIMrEEVXeaMWXLV_XyzS-12" value="" style="shape=tableRow;horizontal=0;startSize=0;swimlaneHead=0;swimlaneBody=0;strokeColor=inherit;top=0;left=0;bottom=0;right=0;collapsible=0;dropTarget=0;fillColor=none;points=[[0,0.5],[1,0.5]];portConstraint=eastwest;fontSize=16;" vertex="1" parent="kIMrEEVXeaMWXLV_XyzS-7">
          <mxGeometry y="40" width="130" height="20" as="geometry" />
        </mxCell>
        <mxCell id="kIMrEEVXeaMWXLV_XyzS-13" value="&lt;font style=&quot;color: rgb(0, 153, 153);&quot;&gt;GCP required&lt;/font&gt;" style="shape=partialRectangle;html=1;whiteSpace=wrap;connectable=0;strokeColor=inherit;overflow=hidden;fillColor=none;top=0;left=0;bottom=0;right=0;pointerEvents=1;fontSize=12;align=left;spacingLeft=5;" vertex="1" parent="kIMrEEVXeaMWXLV_XyzS-12">
          <mxGeometry width="130" height="20" as="geometry">
            <mxRectangle width="130" height="20" as="alternateBounds" />
          </mxGeometry>
        </mxCell>
        <mxCell id="kIMrEEVXeaMWXLV_XyzS-14" style="shape=tableRow;horizontal=0;startSize=0;swimlaneHead=0;swimlaneBody=0;strokeColor=inherit;top=0;left=0;bottom=0;right=0;collapsible=0;dropTarget=0;fillColor=none;points=[[0,0.5],[1,0.5]];portConstraint=eastwest;fontSize=16;" vertex="1" parent="kIMrEEVXeaMWXLV_XyzS-7">
          <mxGeometry y="60" width="130" height="32" as="geometry" />
        </mxCell>
        <mxCell id="kIMrEEVXeaMWXLV_XyzS-15" value="&lt;font style=&quot;color: rgb(0, 153, 153);&quot;&gt;regulatory (FDA)&lt;/font&gt;&lt;div&gt;&lt;font style=&quot;color: rgb(0, 153, 153);&quot;&gt;execute trial&lt;/font&gt;&lt;/div&gt;" style="shape=partialRectangle;html=1;whiteSpace=wrap;connectable=0;strokeColor=#009999;overflow=hidden;fillColor=none;top=0;left=0;bottom=0;right=0;pointerEvents=1;fontSize=12;align=left;spacingLeft=5;" vertex="1" parent="kIMrEEVXeaMWXLV_XyzS-14">
          <mxGeometry width="130" height="32" as="geometry">
            <mxRectangle width="130" height="32" as="alternateBounds" />
          </mxGeometry>
        </mxCell>
        <mxCell id="kIMrEEVXeaMWXLV_XyzS-62" value="value" style="whiteSpace=wrap;html=1;align=center;" vertex="1" parent="1">
          <mxGeometry x="1551.25" y="1050" width="58.75" height="20" as="geometry" />
        </mxCell>
      </root>
    </mxGraphModel>
  </diagram>
</mxfile>
